<svg xmlns="http://www.w3.org/2000/svg" viewBox="0 0 96.2 91.1"><defs><style>.cls-1,.cls-3{fill:#fff;stroke:#fff;}.cls-1,.cls-2{stroke-miterlimit:10;}.cls-2{fill:#fcbd34;stroke:#fcbd34;}.cls-3{stroke-linejoin:bevel;}</style></defs><g id="Layer_2" data-name="Layer 2"><g id="foreground"><path class="cls-1" d="M.5.6H31a24.51,24.51,0,0,1,7.42.83A5,5,0,0,1,41.6,4a10.46,10.46,0,0,1,.76,4.23V19.51a19.92,19.92,0,0,1-.7,5.34,6.72,6.72,0,0,1-3.63,4c-2,1-5.14,1.54-9.59,1.54H18.51V49.66H.5Zm29.7,51L17.45,29.72l12.05-.16,5.14.87.7.32L46.92,47.2ZM21.9,20.94c1.09,0,1.77-.23,2-.68a4.78,4.78,0,0,0,.41-2.33v-3.8c0-2-.14-3.11-.41-3.48s-1-.55-2-.55H18.51V20.94Z"/><path class="cls-2" d="M76.08,49.45,60.92,19.29,52.62,30l-5.78-4.49L65.93.94l15,30.37L89.72,20,95.5,24.5Z"/><path class="cls-1" d="M.58,55.24h23c2.65,0,4.36.39,5.15,1.17a5.29,5.29,0,0,1,1.18,3.85V85.53a5.25,5.25,0,0,1-1.23,3.85c-.81.81-2.43,1.22-4.84,1.22H.58ZM15.67,83.76c.62,0,1-.15,1.1-.46a2.49,2.49,0,0,0,.16-.85V63.34a2.09,2.09,0,0,0-.16-.94c-.12-.21-.48-.32-1.1-.32H13.48V83.76Z"/><path class="cls-1" d="M33.12,55.24H60.85v6.84H46.1v6.11H58.83L57.31,75H46.1v8.73H60.85V90.6H33.12Z"/><path class="cls-1" d="M71.9,90.6,61.11,55.24h13l4.13,22.13.08,1.48h.09l.08-1.48L82,55.24H95.5L84.79,90.6Z"/><polygon class="cls-3" points="60.85 62.08 63.2 62.08 61.11 55.24 60.85 62.08"/></g></g></svg>